<svg xmlns="http://www.w3.org/2000/svg" xmlns:xlink="http://www.w3.org/1999/xlink" width="500" zoomAndPan="magnify" viewBox="0 0 375 374.999991" height="500" preserveAspectRatio="xMidYMid meet" version="1.0"><defs><g/></defs><rect x="-37.5" width="450" fill="#ffffff" y="-37.499999" height="449.999989" fill-opacity="1"/><rect x="-37.5" width="450" fill="#ffffff" y="-37.499999" height="449.999989" fill-opacity="1"/><g fill="#f1efe7" fill-opacity="1"><g transform="translate(14.864733, 208.487571)"><g><path d="M 24.125 1.109375 C 20.0625 1.109375 16.65625 0.140625 13.90625 -1.796875 C 11.164062 -3.742188 9.101562 -6.316406 7.71875 -9.515625 C 6.332031 -12.722656 5.640625 -16.269531 5.640625 -20.15625 L 5.640625 -31.625 C 5.640625 -36.914062 5.375 -40.6875 4.84375 -42.9375 C 4.320312 -45.1875 3.722656 -46.710938 3.046875 -47.515625 L 3.046875 -48.453125 C 5.085938 -48.566406 7.140625 -48.898438 9.203125 -49.453125 C 11.265625 -50.015625 12.972656 -50.878906 14.328125 -52.046875 L 15.34375 -52.046875 L 15.34375 -19.5 C 15.34375 -16.601562 15.804688 -13.96875 16.734375 -11.59375 C 17.660156 -9.226562 19.078125 -7.335938 20.984375 -5.921875 C 22.898438 -4.503906 25.304688 -3.796875 28.203125 -3.796875 C 31.035156 -3.796875 33.4375 -4.472656 35.40625 -5.828125 C 37.382812 -7.179688 38.910156 -9 39.984375 -11.28125 C 41.066406 -13.5625 41.609375 -16.085938 41.609375 -18.859375 L 41.609375 -31.625 C 41.609375 -36.914062 41.34375 -40.6875 40.8125 -42.9375 C 40.289062 -45.1875 39.691406 -46.710938 39.015625 -47.515625 L 39.015625 -48.453125 C 41.046875 -48.566406 43.09375 -48.898438 45.15625 -49.453125 C 47.226562 -50.015625 48.941406 -50.878906 50.296875 -52.046875 L 51.3125 -52.046875 L 51.3125 -12.765625 C 51.3125 -10.484375 51.664062 -8.570312 52.375 -7.03125 C 53.082031 -5.488281 54.269531 -4.71875 55.9375 -4.71875 C 57.164062 -4.71875 58.101562 -5.175781 58.75 -6.09375 C 59.394531 -7.019531 59.8125 -8.070312 60 -9.25 L 60.921875 -9.15625 C 60.796875 -7.550781 60.441406 -5.945312 59.859375 -4.34375 C 59.273438 -2.738281 58.363281 -1.425781 57.125 -0.40625 C 55.894531 0.601562 54.296875 1.109375 52.328125 1.109375 C 48.566406 1.109375 45.914062 0.046875 44.375 -2.078125 C 42.832031 -4.203125 41.910156 -6.773438 41.609375 -9.796875 L 40.671875 -9.796875 C 39.503906 -6.410156 37.503906 -3.742188 34.671875 -1.796875 C 31.835938 0.140625 28.320312 1.109375 24.125 1.109375 Z M 24.125 1.109375 "/></g></g></g><g fill="#f1efe7" fill-opacity="1"><g transform="translate(66.163236, 208.487571)"><g><path d="M 3.140625 0 L 3.140625 -1.109375 C 3.878906 -2.398438 4.460938 -4.941406 4.890625 -8.734375 C 5.328125 -12.523438 5.546875 -17.472656 5.546875 -23.578125 L 5.546875 -31.625 C 5.546875 -36.914062 5.269531 -40.6875 4.71875 -42.9375 C 4.164062 -45.1875 3.546875 -46.710938 2.859375 -47.515625 L 2.859375 -48.453125 C 4.960938 -48.566406 7.03125 -48.898438 9.0625 -49.453125 C 11.09375 -50.015625 12.785156 -50.878906 14.140625 -52.046875 L 15.15625 -52.046875 L 15.15625 -40.859375 L 16.09375 -40.859375 C 17.445312 -44.316406 19.660156 -47.03125 22.734375 -49 C 25.816406 -50.96875 29.425781 -51.953125 33.5625 -51.953125 C 37.625 -51.953125 41.164062 -51 44.1875 -49.09375 C 47.207031 -47.1875 49.550781 -44.628906 51.21875 -41.421875 C 52.882812 -38.210938 53.71875 -34.664062 53.71875 -30.78125 L 53.71875 -23.484375 C 53.71875 -11.273438 54.550781 -3.816406 56.21875 -1.109375 L 56.21875 0 L 41.609375 0 L 41.609375 -1.109375 C 43.265625 -3.816406 44.09375 -11.273438 44.09375 -23.484375 L 44.09375 -31.53125 C 44.09375 -34.425781 43.492188 -37.03125 42.296875 -39.34375 C 41.097656 -41.65625 39.40625 -43.503906 37.21875 -44.890625 C 35.03125 -46.273438 32.484375 -46.96875 29.578125 -46.96875 C 26.679688 -46.96875 24.15625 -46.285156 22 -44.921875 C 19.84375 -43.566406 18.160156 -41.71875 16.953125 -39.375 C 15.753906 -37.039062 15.15625 -34.425781 15.15625 -31.53125 L 15.15625 -23.484375 C 15.15625 -11.273438 15.988281 -3.816406 17.65625 -1.109375 L 17.65625 0 Z M 3.140625 0 "/></g></g></g><g fill="#f1efe7" fill-opacity="1"><g transform="translate(116.444951, 208.487571)"><g><path d="M 10.265625 -58.703125 C 8.535156 -58.703125 7.023438 -59.316406 5.734375 -60.546875 C 4.441406 -61.785156 3.796875 -63.269531 3.796875 -65 C 3.796875 -66.78125 4.441406 -68.269531 5.734375 -69.46875 C 7.023438 -70.675781 8.535156 -71.28125 10.265625 -71.28125 C 12.046875 -71.28125 13.582031 -70.675781 14.875 -69.46875 C 16.175781 -68.269531 16.828125 -66.78125 16.828125 -65 C 16.828125 -63.269531 16.175781 -61.785156 14.875 -60.546875 C 13.582031 -59.316406 12.046875 -58.703125 10.265625 -58.703125 Z M 3.703125 0 L 3.703125 -1.109375 C 4.441406 -2.398438 5.023438 -4.925781 5.453125 -8.6875 C 5.890625 -12.445312 6.109375 -17.378906 6.109375 -23.484375 L 6.109375 -32.828125 C 6.046875 -37.566406 5.765625 -41 5.265625 -43.125 C 4.773438 -45.25 4.191406 -46.679688 3.515625 -47.421875 L 3.515625 -48.359375 C 5.546875 -48.472656 7.59375 -48.820312 9.65625 -49.40625 C 11.726562 -50 13.441406 -50.878906 14.796875 -52.046875 L 15.8125 -52.046875 L 15.8125 -23.484375 C 15.8125 -11.210938 16.613281 -3.753906 18.21875 -1.109375 L 18.21875 0 Z M 3.703125 0 "/></g></g></g><g fill="#f1efe7" fill-opacity="1"><g transform="translate(128.828612, 208.487571)"><g><path d="M 21.359375 0 L 11 -28.84375 C 9.957031 -31.738281 8.863281 -34.617188 7.71875 -37.484375 C 6.582031 -40.347656 5.457031 -42.875 4.34375 -45.0625 C 3.238281 -47.257812 2.128906 -48.785156 1.015625 -49.640625 L 1.015625 -50.84375 L 17.5625 -50.84375 L 17.5625 -49.734375 C 17.195312 -48.378906 17.289062 -46.097656 17.84375 -42.890625 C 18.394531 -39.691406 19.71875 -35.007812 21.8125 -28.84375 L 29.03125 -9.25 L 29.953125 -9.25 L 37.171875 -28.84375 C 39.265625 -35.007812 40.726562 -39.691406 41.5625 -42.890625 C 42.394531 -46.097656 42.625 -48.378906 42.25 -49.734375 L 42.25 -50.84375 L 50.484375 -50.84375 L 50.484375 -49.734375 C 49.128906 -48.441406 47.460938 -46.144531 45.484375 -42.84375 C 43.515625 -39.550781 41.453125 -34.882812 39.296875 -28.84375 L 28.46875 0 Z M 21.359375 0 "/></g></g></g><g fill="#f1efe7" fill-opacity="1"><g transform="translate(171.623162, 208.487571)"><g><path d="M 33.5625 1.109375 C 29.375 1.109375 25.398438 0.476562 21.640625 -0.78125 C 17.878906 -2.050781 14.546875 -3.851562 11.640625 -6.1875 C 8.742188 -8.53125 6.476562 -11.320312 4.84375 -14.5625 C 3.21875 -17.800781 2.40625 -21.421875 2.40625 -25.421875 C 2.40625 -30.535156 3.632812 -35.09375 6.09375 -39.09375 C 8.5625 -43.101562 11.984375 -46.25 16.359375 -48.53125 C 20.734375 -50.8125 25.789062 -51.953125 31.53125 -51.953125 C 36.582031 -51.953125 40.707031 -51.320312 43.90625 -50.0625 C 47.113281 -48.800781 49.488281 -47.132812 51.03125 -45.0625 C 52.570312 -43 53.34375 -40.769531 53.34375 -38.375 C 53.34375 -35.53125 52.203125 -33.226562 49.921875 -31.46875 C 47.640625 -29.71875 44.554688 -28.425781 40.671875 -27.59375 C 36.796875 -26.757812 32.40625 -26.359375 27.5 -26.390625 C 22.601562 -26.421875 17.503906 -26.804688 12.203125 -27.546875 L 12.203125 -26.171875 C 12.203125 -21.421875 13.1875 -17.132812 15.15625 -13.3125 C 17.132812 -9.488281 19.863281 -6.46875 23.34375 -4.25 C 26.820312 -2.03125 30.875 -0.921875 35.5 -0.921875 C 39.6875 -0.921875 42.9375 -1.921875 45.25 -3.921875 C 47.5625 -5.929688 48.71875 -8.414062 48.71875 -11.375 C 48.71875 -13.71875 48.070312 -15.535156 46.78125 -16.828125 C 45.488281 -18.117188 43.882812 -18.765625 41.96875 -18.765625 C 39.625 -18.765625 37.882812 -18.007812 36.75 -16.5 C 35.613281 -14.988281 35.351562 -13.398438 35.96875 -11.734375 L 34.953125 -11.46875 C 34.515625 -11.957031 34.1875 -12.617188 33.96875 -13.453125 C 33.757812 -14.285156 33.65625 -15.007812 33.65625 -15.625 C 33.65625 -17.96875 34.5 -20.09375 36.1875 -22 C 37.882812 -23.914062 40.398438 -24.875 43.734375 -24.875 C 46.992188 -24.875 49.578125 -23.789062 51.484375 -21.625 C 53.398438 -19.46875 54.359375 -16.910156 54.359375 -13.953125 C 54.359375 -11.179688 53.492188 -8.65625 51.765625 -6.375 C 50.046875 -4.09375 47.628906 -2.273438 44.515625 -0.921875 C 41.398438 0.429688 37.75 1.109375 33.5625 1.109375 Z M 12.296875 -29.21875 C 18.398438 -28.601562 23.960938 -28.523438 28.984375 -28.984375 C 34.003906 -29.441406 38.007812 -30.519531 41 -32.21875 C 43.988281 -33.914062 45.484375 -36.242188 45.484375 -39.203125 C 45.484375 -41.046875 45.035156 -42.800781 44.140625 -44.46875 C 43.253906 -46.132812 41.820312 -47.472656 39.84375 -48.484375 C 37.875 -49.503906 35.253906 -50.015625 31.984375 -50.015625 C 28.472656 -50.015625 25.300781 -49.132812 22.46875 -47.375 C 19.632812 -45.625 17.320312 -43.191406 15.53125 -40.078125 C 13.738281 -36.960938 12.660156 -33.34375 12.296875 -29.21875 Z M 12.296875 -29.21875 "/></g></g></g><g fill="#f1efe7" fill-opacity="1"><g transform="translate(219.59404, 208.487571)"><g><path d="M 10.265625 -58.703125 C 8.535156 -58.703125 7.023438 -59.316406 5.734375 -60.546875 C 4.441406 -61.785156 3.796875 -63.269531 3.796875 -65 C 3.796875 -66.78125 4.441406 -68.269531 5.734375 -69.46875 C 7.023438 -70.675781 8.535156 -71.28125 10.265625 -71.28125 C 12.046875 -71.28125 13.582031 -70.675781 14.875 -69.46875 C 16.175781 -68.269531 16.828125 -66.78125 16.828125 -65 C 16.828125 -63.269531 16.175781 -61.785156 14.875 -60.546875 C 13.582031 -59.316406 12.046875 -58.703125 10.265625 -58.703125 Z M 3.703125 0 L 3.703125 -1.109375 C 4.441406 -2.398438 5.023438 -4.925781 5.453125 -8.6875 C 5.890625 -12.445312 6.109375 -17.378906 6.109375 -23.484375 L 6.109375 -32.828125 C 6.046875 -37.566406 5.765625 -41 5.265625 -43.125 C 4.773438 -45.25 4.191406 -46.679688 3.515625 -47.421875 L 3.515625 -48.359375 C 5.546875 -48.472656 7.59375 -48.820312 9.65625 -49.40625 C 11.726562 -50 13.441406 -50.878906 14.796875 -52.046875 L 15.8125 -52.046875 L 15.8125 -23.484375 C 15.8125 -11.210938 16.613281 -3.753906 18.21875 -1.109375 L 18.21875 0 Z M 3.703125 0 "/></g></g></g><g fill="#f1efe7" fill-opacity="1"><g transform="translate(231.977691, 208.487571)"><g><path d="M 26.171875 1.109375 C 21.421875 1.109375 17.257812 -0.09375 13.6875 -2.5 C 10.113281 -4.90625 7.335938 -8.125 5.359375 -12.15625 C 3.390625 -16.195312 2.40625 -20.617188 2.40625 -25.421875 C 2.40625 -30.234375 3.390625 -34.640625 5.359375 -38.640625 C 7.335938 -42.648438 10.113281 -45.867188 13.6875 -48.296875 C 17.257812 -50.734375 21.421875 -51.953125 26.171875 -51.953125 C 30.972656 -51.953125 35.160156 -50.734375 38.734375 -48.296875 C 42.304688 -45.867188 44.988281 -42.46875 46.78125 -38.09375 L 47.609375 -38.09375 L 47.609375 -48.171875 C 47.609375 -53.410156 47.347656 -57.171875 46.828125 -59.453125 C 46.304688 -61.734375 45.675781 -63.242188 44.9375 -63.984375 L 44.9375 -64.90625 C 47.03125 -65.03125 49.109375 -65.382812 51.171875 -65.96875 C 53.234375 -66.550781 54.941406 -67.425781 56.296875 -68.59375 L 57.328125 -68.59375 L 57.328125 -13.125 C 57.328125 -10.84375 57.707031 -8.867188 58.46875 -7.203125 C 59.238281 -5.546875 60.457031 -4.71875 62.125 -4.71875 C 63.300781 -4.71875 64.210938 -5.175781 64.859375 -6.09375 C 65.503906 -7.019531 65.953125 -8.070312 66.203125 -9.25 L 67.125 -9.15625 C 67 -7.550781 66.628906 -5.945312 66.015625 -4.34375 C 65.398438 -2.738281 64.472656 -1.425781 63.234375 -0.40625 C 62.003906 0.601562 60.40625 1.109375 58.4375 1.109375 C 54.851562 1.109375 52.226562 -0.101562 50.5625 -2.53125 C 48.90625 -4.96875 47.984375 -8.4375 47.796875 -12.9375 L 46.875 -12.9375 C 45.144531 -8.5 42.476562 -5.046875 38.875 -2.578125 C 35.269531 -0.117188 31.035156 1.109375 26.171875 1.109375 Z M 29.765625 -2.953125 C 33.097656 -2.953125 36.085938 -3.90625 38.734375 -5.8125 C 41.390625 -7.726562 43.488281 -10.363281 45.03125 -13.71875 C 46.570312 -17.082031 47.34375 -20.984375 47.34375 -25.421875 C 47.34375 -29.859375 46.570312 -33.753906 45.03125 -37.109375 C 43.488281 -40.472656 41.390625 -43.109375 38.734375 -45.015625 C 36.085938 -46.929688 33.097656 -47.890625 29.765625 -47.890625 C 26.503906 -47.890625 23.546875 -46.929688 20.890625 -45.015625 C 18.242188 -43.109375 16.164062 -40.472656 14.65625 -37.109375 C 13.144531 -33.753906 12.390625 -29.859375 12.390625 -25.421875 C 12.390625 -20.984375 13.144531 -17.082031 14.65625 -13.71875 C 16.164062 -10.363281 18.242188 -7.726562 20.890625 -5.8125 C 23.546875 -3.90625 26.503906 -2.953125 29.765625 -2.953125 Z M 29.765625 -2.953125 "/></g></g></g><g fill="#f1efe7" fill-opacity="1"><g transform="translate(289.376853, 208.487571)"><g><path d="M 20.796875 1.109375 C 17.097656 1.109375 13.863281 0.414062 11.09375 -0.96875 C 8.320312 -2.351562 6.179688 -4.265625 4.671875 -6.703125 C 3.160156 -9.140625 2.40625 -11.898438 2.40625 -14.984375 C 2.40625 -18.117188 3.160156 -20.890625 4.671875 -23.296875 C 6.179688 -25.703125 8.320312 -27.597656 11.09375 -28.984375 C 13.863281 -30.367188 17.097656 -31.0625 20.796875 -31.0625 C 23.878906 -31.0625 26.726562 -30.457031 29.34375 -29.25 C 31.96875 -28.050781 33.988281 -26.46875 35.40625 -24.5 L 36.234375 -24.5 L 34.109375 -36.796875 C 33.429688 -40.804688 32.03125 -43.992188 29.90625 -46.359375 C 27.78125 -48.734375 24.835938 -49.921875 21.078125 -49.921875 C 18.117188 -49.921875 15.898438 -49.257812 14.421875 -47.9375 C 12.941406 -46.613281 12.203125 -44.960938 12.203125 -42.984375 C 12.203125 -41.203125 12.785156 -39.785156 13.953125 -38.734375 C 15.128906 -37.691406 16.519531 -37.171875 18.125 -37.171875 C 20.03125 -37.171875 21.566406 -37.707031 22.734375 -38.78125 C 23.910156 -39.863281 24.191406 -41.207031 23.578125 -42.8125 L 24.59375 -43.078125 C 24.90625 -42.710938 25.132812 -42.21875 25.28125 -41.59375 C 25.4375 -40.976562 25.515625 -40.425781 25.515625 -39.9375 C 25.515625 -38.207031 24.773438 -36.601562 23.296875 -35.125 C 21.816406 -33.644531 19.722656 -32.90625 17.015625 -32.90625 C 14.234375 -32.90625 11.890625 -33.753906 9.984375 -35.453125 C 8.078125 -37.148438 7.125 -39.140625 7.125 -41.421875 C 7.125 -43.390625 7.816406 -45.175781 9.203125 -46.78125 C 10.585938 -48.382812 12.460938 -49.644531 14.828125 -50.5625 C 17.203125 -51.488281 19.875 -51.953125 22.84375 -51.953125 C 29.0625 -51.953125 33.910156 -50.253906 37.390625 -46.859375 C 40.878906 -43.472656 43.113281 -39.039062 44.09375 -33.5625 L 47.703125 -12.671875 C 48.078125 -10.390625 48.707031 -8.492188 49.59375 -6.984375 C 50.488281 -5.472656 51.738281 -4.71875 53.34375 -4.71875 C 54.570312 -4.71875 55.476562 -5.144531 56.0625 -6 C 56.65625 -6.863281 57.078125 -7.882812 57.328125 -9.0625 L 58.25 -9.0625 C 58.1875 -7.457031 57.84375 -5.867188 57.21875 -4.296875 C 56.601562 -2.722656 55.695312 -1.425781 54.5 -0.40625 C 53.300781 0.601562 51.742188 1.109375 49.828125 1.109375 C 46.566406 1.109375 44.101562 -0.03125 42.4375 -2.3125 C 40.769531 -4.59375 39.660156 -7.304688 39.109375 -10.453125 L 38.1875 -10.453125 C 37.195312 -7.054688 35.128906 -4.28125 31.984375 -2.125 C 28.847656 0.03125 25.117188 1.109375 20.796875 1.109375 Z M 24.78125 -3.328125 C 27.238281 -3.328125 29.421875 -3.878906 31.328125 -4.984375 C 33.242188 -6.097656 34.753906 -7.5625 35.859375 -9.375 C 36.972656 -11.195312 37.53125 -13.21875 37.53125 -15.4375 C 37.53125 -17.71875 36.972656 -19.765625 35.859375 -21.578125 C 34.753906 -23.398438 33.242188 -24.863281 31.328125 -25.96875 C 29.421875 -27.082031 27.238281 -27.640625 24.78125 -27.640625 C 20.832031 -27.640625 17.703125 -26.5 15.390625 -24.21875 C 13.078125 -21.9375 11.921875 -19.007812 11.921875 -15.4375 C 11.921875 -11.925781 13.078125 -9.03125 15.390625 -6.75 C 17.703125 -4.46875 20.832031 -3.328125 24.78125 -3.328125 Z M 24.78125 -3.328125 "/></g></g></g><g fill="#f1efe7" fill-opacity="1"><g transform="translate(337.99477, 208.487571)"><g><path d="M 11 0.828125 C 9.269531 0.828125 7.863281 0.257812 6.78125 -0.875 C 5.707031 -2.019531 5.171875 -3.363281 5.171875 -4.90625 C 5.171875 -6.5 5.707031 -7.847656 6.78125 -8.953125 C 7.863281 -10.066406 9.269531 -10.625 11 -10.625 C 12.789062 -10.625 14.222656 -10.066406 15.296875 -8.953125 C 16.378906 -7.847656 16.921875 -6.5 16.921875 -4.90625 C 16.921875 -3.363281 16.378906 -2.019531 15.296875 -0.875 C 14.222656 0.257812 12.789062 0.828125 11 0.828125 Z M 11 0.828125 "/></g></g></g></svg>